<?xml version="1.0" encoding="utf-8"?>
<!-- Generator: Adobe Illustrator 25.0.0, SVG Export Plug-In . SVG Version: 6.00 Build 0)  -->
<svg version="1.1" id="Слой_1" xmlns="http://www.w3.org/2000/svg" xmlns:xlink="http://www.w3.org/1999/xlink" x="0px" y="0px"
	 viewBox="0 0 398.7 96.5" style="enable-background:new 0 0 398.7 96.5;" xml:space="preserve">
<style type="text/css">
	.st0{fill:url(#SVGID_1_);}
</style>
<linearGradient id="SVGID_1_" gradientUnits="userSpaceOnUse" x1="380.4151" y1="38.5849" x2="394.6849" y2="24.3151" gradientTransform="matrix(1 0 0 -1 0 98)">
	<stop  offset="0" style="stop-color:#4C3CE4"/>
	<stop  offset="1" style="stop-color:#7759FF"/>
</linearGradient>
<path class="st0" d="M396.8,66.5L396.8,66.5c0-6.9-2.6-9.2-9.2-9.2s-9.2,2.3-9.2,9.2l0,0c0,0,0,0,0,0s0,0,0,0l0,0
	c0,6.9,2.6,9.2,9.2,9.2S396.8,73.4,396.8,66.5L396.8,66.5C396.8,66.6,396.8,66.6,396.8,66.5C396.8,66.5,396.8,66.5,396.8,66.5z"/>
<g>
	<path d="M8.8,17.7c-2.4,0-4.5-0.9-6.2-2.6S0,11.3,0,8.8c0-2.4,0.9-4.5,2.6-6.2S6.4,0,8.8,0c2.4,0,4.5,0.9,6.2,2.6s2.6,3.8,2.6,6.2
		c0,2.4-0.9,4.5-2.6,6.2C13.4,16.8,11.3,17.7,8.8,17.7z M0.8,75.1V22.5h16.1V75L0.8,75.1L0.8,75.1z"/>
	<path d="M26.8,75.1V22.5h16.1v3.6c4-3,8.7-4.6,14.1-4.6c4.1,0,7.7,0.9,10.9,2.7c3.1,1.8,5.6,4.3,7.4,7.4s2.7,6.8,2.7,11V75H61.8
		V44.9c0-2.9-0.9-5.2-2.6-7s-4-2.6-7-2.6c-4,0-7.2,1.4-9.4,4.2V75C42.9,75,26.8,75,26.8,75.1z"/>
	<path d="M108.2,76c-5,0-9.6-0.6-13.8-1.7c-4.2-1.2-7.9-2.9-11-5.1L91,58.4c3.3,2,6.3,3.4,9,4.3s5.4,1.3,8,1.3s4.8-0.4,6.3-1.1
		s2.3-1.8,2.3-3c0-1.9-1.8-3.2-5.4-3.8l-10.4-1.6c-5.2-0.8-9.2-2.5-12-5.2c-2.8-2.7-4.1-6.2-4.1-10.5c0-5.3,2-9.5,6.1-12.5
		c4-3,9.6-4.6,16.6-4.6c3.8,0,7.6,0.5,11.4,1.6c3.8,1.1,7.3,2.6,10.5,4.8l-7.6,10.3c-5.5-3.2-10.8-4.8-15.9-4.8c-2.1,0-3.7,0.3-5,1
		c-1.3,0.7-1.9,1.6-1.9,2.7c0,1.1,0.5,1.9,1.4,2.5c0.9,0.6,2.5,1.1,4.8,1.4l10.4,1.6c5.2,0.7,9.2,2.4,12,5.1s4.2,6.1,4.2,10.2
		c0,3.4-1,6.5-3.1,9.1c-2.1,2.7-4.8,4.8-8.4,6.3C116.8,75.3,112.8,76,108.2,76z"/>
	<path d="M155.3,75.9c-3.7,0-7-0.7-9.9-2.1s-5.1-3.3-6.8-5.8c-1.6-2.4-2.4-5.3-2.4-8.4c0-5,1.9-8.9,5.7-11.7
		c3.8-2.8,9.1-4.1,15.9-4.1c4.1,0,8.1,0.5,11.9,1.5v-2.6c0-5.2-3.3-7.8-10-7.8c-4,0-9.3,1.4-15.9,4.2l-5.8-11.8
		c8.5-3.8,16.6-5.8,24.5-5.8c7.3,0,12.9,1.7,17,5.2s6.1,8.4,6.1,14.6v33.7h-15.9v-3.2c-2.1,1.5-4.4,2.5-6.7,3.1
		C160.7,75.6,158.1,75.9,155.3,75.9z M151.5,59.4c0,1.7,0.7,3,2.2,3.9c1.5,0.9,3.5,1.4,6.1,1.4c4,0,7.3-0.8,10-2.5v-6.8
		c-3-0.8-6.2-1.2-9.5-1.2c-2.8,0-4.9,0.5-6.4,1.3C152.2,56.4,151.5,57.7,151.5,59.4z"/>
	<path d="M195.2,75.1V22.5h16.1v3.6c4-3,8.7-4.6,14.1-4.6c4.1,0,7.7,0.9,10.9,2.7c3.1,1.8,5.6,4.3,7.4,7.4s2.7,6.8,2.7,11V75h-16.1
		V44.9c0-2.9-0.9-5.2-2.6-7s-4-2.6-6.9-2.6c-4,0-7.2,1.4-9.4,4.2V75C211.2,75,195.2,75,195.2,75.1z"/>
	<path d="M263.9,17.7c-2.5,0-4.5-0.9-6.2-2.6s-2.6-3.8-2.6-6.2c0-2.4,0.9-4.5,2.6-6.2s3.8-2.6,6.2-2.6s4.5,0.9,6.2,2.6
		s2.6,3.8,2.6,6.2c0,2.4-0.9,4.5-2.6,6.2C268.4,16.8,266.3,17.7,263.9,17.7z M255.8,75.1V22.5h16.1V75L255.8,75.1L255.8,75.1z"/>
	<path d="M308.3,75.7c-12.7,0-19.1-5.6-19.1-16.7V35.9h-10.6V22.5h10.6V9l16.1-3.5v17H320v13.4h-14.7v20c0,2.3,0.5,4,1.5,4.9
		c1,1,2.8,1.4,5.4,1.4c2.4,0,4.8-0.4,7.2-1.1v13c-1.5,0.5-3.3,0.8-5.6,1.1S309.9,75.7,308.3,75.7z"/>
	<path d="M333.5,96.5c-1.3,0-2.5-0.1-3.7-0.2s-2.2-0.2-3-0.4V82.2c1.3,0.3,3,0.4,5,0.4c5.2,0,8.6-2.2,10.4-6.8v-0.1l-20.1-53.2h17.8
		l11.6,33.1L365,22.5h17.4l-23.5,55.2c-1.9,4.6-4,8.2-6.4,11c-2.3,2.8-5,4.7-8,6C341.4,95.9,337.8,96.5,333.5,96.5z"/>
</g>
</svg>
