<?xml version="1.0" encoding="utf-8"?>
<!-- Generator: Adobe Illustrator 25.0.0, SVG Export Plug-In . SVG Version: 6.00 Build 0)  -->
<svg version="1.1" id="Слой_1" xmlns="http://www.w3.org/2000/svg" xmlns:xlink="http://www.w3.org/1999/xlink" x="0px" y="0px"
	 viewBox="0 0 20 20" style="enable-background:new 0 0 20 20;" xml:space="preserve">
<style type="text/css">
	.st0{fill-rule:evenodd;clip-rule:evenodd;}
</style>
<path class="st0" d="M10,0.27c-5.51,0-9.97,4.47-9.97,9.97c0,4.41,2.86,8.15,6.82,9.47c0.5,0.09,0.68-0.22,0.68-0.48
	c0-0.24-0.01-0.86-0.01-1.7c-2.78,0.6-3.36-1.34-3.36-1.34c-0.45-1.15-1.11-1.46-1.11-1.46c-0.91-0.62,0.07-0.6,0.07-0.6
	c1,0.07,1.53,1.03,1.53,1.03c0.89,1.52,2.34,1.08,2.9,0.83c0.09-0.65,0.35-1.09,0.64-1.33c-2.21-0.25-4.54-1.11-4.54-4.93
	c0-1.09,0.39-1.98,1.02-2.67c-0.1-0.25-0.45-1.27,0.1-2.64c0,0,0.84-0.27,2.74,1.02C8.3,5.21,9.15,5.1,10,5.1
	c0.85,0,1.7,0.11,2.5,0.34c1.91-1.29,2.74-1.02,2.74-1.02c0.55,1.37,0.2,2.39,0.1,2.64c0.64,0.7,1.02,1.59,1.02,2.67
	c0,3.83-2.33,4.68-4.55,4.92c0.35,0.31,0.68,0.92,0.68,1.85c0,1.33-0.01,2.41-0.01,2.74c0,0.27,0.18,0.58,0.69,0.48
	c3.96-1.32,6.82-5.06,6.82-9.46C19.97,4.74,15.51,0.27,10,0.27z"/>
</svg>
