<?xml version="1.0" encoding="utf-8"?>
<!-- Generator: Adobe Illustrator 25.0.0, SVG Export Plug-In . SVG Version: 6.00 Build 0)  -->
<svg version="1.1" id="Слой_1" xmlns="http://www.w3.org/2000/svg" xmlns:xlink="http://www.w3.org/1999/xlink" x="0px" y="0px"
	 viewBox="0 0 20 20" style="enable-background:new 0 0 20 20;" xml:space="preserve">
<path d="M10,2.6C8.9,1.6,7.5,1,6,1C4.4,1,2.9,1.6,1.8,2.8c-2.4,2.4-2.4,6.1,0,8.4l7.3,7.3C9.3,18.8,9.6,19,10,19
	c0.3,0,0.6-0.2,0.8-0.4l7.4-7.4c2.4-2.4,2.4-6,0-8.4C17.1,1.6,15.6,1,14,1C12.5,1,11.1,1.6,10,2.6z M16.8,4.2c1.6,1.6,1.6,4,0,5.6
	L10,16.6L3.2,9.8c-1.6-1.6-1.6-4,0-5.6C4,3.4,5,3,6,3s2,0.4,2.8,1.2l0.5,0.5c0.4,0.4,1,0.4,1.4,0l0.5-0.5
	C12.7,2.7,15.3,2.7,16.8,4.2z"/>
</svg>
